<?xml version="1.0" encoding="UTF-8" standalone="no"?>
<svg
   xmlns:osb="http://www.openswatchbook.org/uri/2009/osb"
   xmlns:dc="http://purl.org/dc/elements/1.1/"
   xmlns:cc="http://creativecommons.org/ns#"
   xmlns:rdf="http://www.w3.org/1999/02/22-rdf-syntax-ns#"
   xmlns:svg="http://www.w3.org/2000/svg"
   xmlns="http://www.w3.org/2000/svg"
   xmlns:sodipodi="http://sodipodi.sourceforge.net/DTD/sodipodi-0.dtd"
   xmlns:inkscape="http://www.inkscape.org/namespaces/inkscape"
   version="1.0"
   width="210mm"
   height="297mm"
   viewBox="-108.198 0 793.7008 1122.5197"
   id="Layer_1"
   xml:space="preserve"
   sodipodi:docname="MasterSystemControllerColorWireScheme.svg"
   inkscape:version="1.0.1 (3bc2e813f5, 2020-09-07)"><metadata
   id="metadata21"><rdf:RDF><cc:Work
       rdf:about=""><dc:format>image/svg+xml</dc:format><dc:type
         rdf:resource="http://purl.org/dc/dcmitype/StillImage" /><dc:title></dc:title></cc:Work></rdf:RDF></metadata><sodipodi:namedview
   pagecolor="#ffffff"
   bordercolor="#666666"
   borderopacity="1"
   objecttolerance="10"
   gridtolerance="10"
   guidetolerance="10"
   inkscape:pageopacity="0"
   inkscape:pageshadow="2"
   inkscape:window-width="1920"
   inkscape:window-height="1017"
   id="namedview19"
   showgrid="false"
   inkscape:zoom="0.70710678"
   inkscape:cx="835.9751"
   inkscape:cy="420.07893"
   inkscape:window-x="-8"
   inkscape:window-y="-8"
   inkscape:window-maximized="1"
   inkscape:current-layer="Layer_1"
   units="mm"
   inkscape:document-rotation="0" /><defs
   id="defs4081"><linearGradient
   id="linearGradient2813"
   osb:paint="solid"><stop
     style="stop-color:#b3b3b3;stop-opacity:1;"
     offset="0"
     id="stop2811" /></linearGradient>
	
	
	
	
	
	
	
	
	
</defs>



<g
   id="g2919"
   transform="matrix(1.8237718,0,0,1.8237718,258.10493,47.09497)"><path
     d="m -18.617244,30.820078 c -5.921096,0 -9.922814,4.769388 -8.893023,10.601485 l 2.484666,14.047668 c 1.031417,5.83169 6.720058,10.606361 12.640747,10.606361 h 40.311813 c 5.919877,0 11.608112,-4.774671 12.640748,-10.606361 L 43.051966,41.421563 C 44.081758,35.589466 40.082071,30.820078 34.158943,30.820078 Z"
     style="fill:none;stroke:#000000;stroke-width:1.05555"
     id="path4052" /><ellipse
     cx="-17.63958"
     cy="42.139919"
     style="fill:#b3b3b3;stroke:#b3b3b3;stroke-width:1.19146;stroke-miterlimit:4;stroke-dasharray:none"
     id="circle4062"
     rx="2.6751466"
     ry="2.661119" /><ellipse
     cx="-4.4702621"
     cy="42.139919"
     style="fill:#ffff00;stroke:#ffff00;stroke-width:1.19146;stroke-miterlimit:4;stroke-dasharray:none"
     id="circle4064"
     rx="2.6751466"
     ry="2.661119" /><ellipse
     cx="8.6962967"
     cy="42.139919"
     style="fill:#ff6600;stroke:#ff6600;stroke-width:1.19096"
     id="circle4066"
     rx="2.6733079"
     ry="2.6592901" /><path
     d="m 21.860556,39.479255 c 1.477559,0 2.674688,1.191764 2.674688,2.661576 0,1.469356 -1.197129,2.660205 -2.674688,2.660205 -1.475261,0 -2.673767,-1.190849 -2.673767,-2.660205 0,-1.469812 1.198506,-2.661576 2.673767,-2.661576 z"
     style="fill:#ff0000;stroke:#ff0000;stroke-width:1.19096"
     id="path4068" /><ellipse
     cx="35.028496"
     cy="42.139919"
     style="fill:#a05a2c;stroke:#a05a2c;stroke-width:1.19096"
     id="circle4070"
     rx="2.6751466"
     ry="2.661119" /><ellipse
     cx="-11.054461"
     cy="55.373257"
     style="fill:none;stroke:#000000;stroke-width:0.195047;stroke-miterlimit:4;stroke-dasharray:none;stroke-dashoffset:0"
     id="circle4072"
     rx="2.963464"
     ry="2.9479246" /><ellipse
     cx="2.1130176"
     cy="55.373257"
     style="fill:#000000;stroke:#000000;stroke-width:1.19096"
     id="circle4074"
     rx="2.6742275"
     ry="2.6602046" /><ellipse
     cx="15.276817"
     cy="55.373257"
     style="fill:#b3b3b3;fill-opacity:1;stroke:#b3b3b3;stroke-width:1.19096"
     id="circle4076"
     rx="2.6742275"
     ry="2.6602046" /><path
     d="m 28.446594,52.712595 c 1.476181,0 2.671929,1.190849 2.671929,2.65929 0,1.468897 -1.195748,2.659748 -2.671929,2.659748 -1.47848,0 -2.673767,-1.190851 -2.673767,-2.659748 0,-1.467983 1.195747,-2.65929 2.673767,-2.65929 z"
     style="fill:#0000ff;stroke:#0000ff;stroke-width:1.19096"
     id="path4078" /></g>
<rect
   style="opacity:1;fill:#000000;fill-opacity:1;stroke:#b3b3b3;stroke-width:0;stroke-linecap:butt;stroke-linejoin:round;stroke-miterlimit:4;stroke-dasharray:none;stroke-dashoffset:0;stroke-opacity:1;paint-order:fill markers stroke"
   id="rect3019"
   width="25.375027"
   height="101.5001"
   x="261.92331"
   y="167.15393"
   ry="3.7099597" /><rect
   style="opacity:1;fill:#008000;fill-opacity:1;stroke:#b3b3b3;stroke-width:0;stroke-linecap:butt;stroke-linejoin:round;stroke-miterlimit:4;stroke-dasharray:none;stroke-dashoffset:0;stroke-opacity:1;paint-order:fill markers stroke"
   id="rect3023"
   width="158.9568"
   height="105.9712"
   x="70.891876"
   y="271.56125"
   ry="3.7099531" /><rect
   style="opacity:1;fill:#008000;fill-opacity:1;stroke:#b3b3b3;stroke-width:0;stroke-linecap:butt;stroke-linejoin:round;stroke-miterlimit:4;stroke-dasharray:none;stroke-dashoffset:0;stroke-opacity:1;paint-order:fill markers stroke"
   id="rect3023-8"
   width="158.9568"
   height="105.9712"
   x="316.43698"
   y="269.15283"
   ry="3.7099531" /><rect
   style="opacity:1;fill:#ffffff;fill-opacity:1;stroke:#b3b3b3;stroke-width:0;stroke-linecap:butt;stroke-linejoin:round;stroke-miterlimit:4;stroke-dasharray:none;stroke-dashoffset:0;stroke-opacity:1;paint-order:fill markers stroke"
   id="rect3040"
   width="11.44007"
   height="10.837966"
   x="321.97638"
   y="274.21051"
   ry="1.6627852" /><rect
   style="opacity:1;fill:#ffffff;fill-opacity:1;stroke:#b3b3b3;stroke-width:0;stroke-linecap:butt;stroke-linejoin:round;stroke-miterlimit:4;stroke-dasharray:none;stroke-dashoffset:0;stroke-opacity:1;paint-order:fill markers stroke"
   id="rect3040-3"
   width="11.44007"
   height="10.837966"
   x="210.64142"
   y="335.04465"
   ry="1.6627852" /><rect
   style="opacity:1;fill:#ffffff;fill-opacity:1;stroke:#b3b3b3;stroke-width:0;stroke-linecap:butt;stroke-linejoin:round;stroke-miterlimit:4;stroke-dasharray:none;stroke-dashoffset:0;stroke-opacity:1;paint-order:fill markers stroke"
   id="rect3040-3-0"
   width="11.44007"
   height="10.837966"
   x="322.27744"
   y="297.12787"
   ry="1.6627852" /><rect
   style="opacity:1;fill:#ffffff;fill-opacity:1;stroke:#b3b3b3;stroke-width:0;stroke-linecap:butt;stroke-linejoin:round;stroke-miterlimit:4;stroke-dasharray:none;stroke-dashoffset:0;stroke-opacity:1;paint-order:fill markers stroke"
   id="rect3040-3-0-4"
   width="11.44007"
   height="10.837966"
   x="322.75912"
   y="331.84042"
   ry="1.6627852" /><rect
   style="opacity:1;fill:#ffffff;fill-opacity:1;stroke:#b3b3b3;stroke-width:0;stroke-linecap:butt;stroke-linejoin:round;stroke-miterlimit:4;stroke-dasharray:none;stroke-dashoffset:0;stroke-opacity:1;paint-order:fill markers stroke"
   id="rect3040-3-0-4-1"
   width="11.44007"
   height="10.837966"
   x="322.75912"
   y="349.58963"
   ry="1.6627852" /><rect
   style="opacity:1;fill:#ffffff;fill-opacity:1;stroke:#b3b3b3;stroke-width:0;stroke-linecap:butt;stroke-linejoin:round;stroke-miterlimit:4;stroke-dasharray:none;stroke-dashoffset:0;stroke-opacity:1;paint-order:fill markers stroke"
   id="rect3040-3-0-4-1-4"
   width="11.44007"
   height="10.837966"
   x="210.64142"
   y="357.18118"
   ry="1.6627852" /><rect
   style="opacity:1;fill:#ffffff;fill-opacity:1;stroke:#b3b3b3;stroke-width:0;stroke-linecap:butt;stroke-linejoin:round;stroke-miterlimit:4;stroke-dasharray:none;stroke-dashoffset:0;stroke-opacity:1;paint-order:fill markers stroke"
   id="rect3040-3-0-4-1-4-1"
   width="11.44007"
   height="10.837966"
   x="210.64142"
   y="318.2067"
   ry="1.6627852" /><rect
   style="opacity:1;fill:#ffffff;fill-opacity:1;stroke:#b3b3b3;stroke-width:0;stroke-linecap:butt;stroke-linejoin:round;stroke-miterlimit:4;stroke-dasharray:none;stroke-dashoffset:0;stroke-opacity:1;paint-order:fill markers stroke"
   id="rect3040-3-0-4-1-4-1-4"
   width="11.44007"
   height="10.837966"
   x="209.12311"
   y="296.19556"
   ry="1.6627852" /><rect
   style="opacity:1;fill:#ffffff;fill-opacity:1;stroke:#b3b3b3;stroke-width:0;stroke-linecap:butt;stroke-linejoin:round;stroke-miterlimit:4;stroke-dasharray:none;stroke-dashoffset:0;stroke-opacity:1;paint-order:fill markers stroke"
   id="rect3040-3-0-4-1-4-1-4-8"
   width="11.44007"
   height="10.837966"
   x="210.15973"
   y="279.14783"
   ry="1.6627852" /><text
   xml:space="preserve"
   style="font-style:normal;font-weight:normal;font-size:9.72678px;line-height:1.25;font-family:sans-serif;fill:#ffffff;fill-opacity:1;stroke:none;stroke-width:1.82377"
   x="198.83313"
   y="366.51489"
   id="text3164"><tspan
     sodipodi:role="line"
     id="tspan3162"
     x="198.83313"
     y="366.51489"
     style="fill:#ffffff;stroke-width:1.82377">8</tspan></text><text
   xml:space="preserve"
   style="font-style:normal;font-weight:normal;font-size:9.72678px;line-height:1.25;font-family:sans-serif;fill:#ffffff;fill-opacity:1;stroke:none;stroke-width:1.82377"
   x="198.25964"
   y="342.21832"
   id="text3164-8"><tspan
     sodipodi:role="line"
     id="tspan3162-4"
     x="198.25964"
     y="342.21832"
     style="fill:#ffffff;stroke-width:1.82377">2</tspan></text><text
   xml:space="preserve"
   style="font-style:normal;font-weight:normal;font-size:9.72678px;line-height:1.25;font-family:sans-serif;fill:#ffffff;fill-opacity:1;stroke:none;stroke-width:1.82377"
   x="198.06253"
   y="325.14264"
   id="text3164-8-5"><tspan
     sodipodi:role="line"
     id="tspan3162-4-7"
     x="198.06253"
     y="325.14264"
     style="fill:#ffffff;stroke-width:1.82377">4</tspan></text><text
   xml:space="preserve"
   style="font-style:normal;font-weight:normal;font-size:9.72678px;line-height:1.25;font-family:sans-serif;fill:#ffffff;fill-opacity:1;stroke:none;stroke-width:1.82377"
   x="198.73615"
   y="303.91431"
   id="text3164-8-5-0"><tspan
     sodipodi:role="line"
     id="tspan3162-4-7-6"
     x="198.73615"
     y="303.91431"
     style="fill:#ffffff;stroke-width:1.82377">1</tspan></text><text
   xml:space="preserve"
   style="font-style:normal;font-weight:normal;font-size:9.72678px;line-height:1.25;font-family:sans-serif;fill:#ffffff;fill-opacity:1;stroke:none;stroke-width:1.82377"
   x="198.7103"
   y="285.42404"
   id="text3164-8-5-0-9"><tspan
     sodipodi:role="line"
     id="tspan3162-4-7-6-9"
     x="198.7103"
     y="285.42404"
     style="fill:#ffffff;stroke-width:1.82377">3</tspan></text><text
   xml:space="preserve"
   style="font-style:normal;font-weight:normal;font-size:9.72678px;line-height:1.25;font-family:sans-serif;fill:#ffffff;fill-opacity:1;stroke:none;stroke-width:1.82377"
   x="338.63464"
   y="284.25375"
   id="text3164-8-5-0-8"><tspan
     sodipodi:role="line"
     id="tspan3162-4-7-6-4"
     x="338.63464"
     y="284.25375"
     style="fill:#ffffff;stroke-width:1.82377">9</tspan></text><text
   xml:space="preserve"
   style="font-style:normal;font-weight:normal;font-size:9.72678px;line-height:1.25;font-family:sans-serif;fill:#ffffff;fill-opacity:1;stroke:none;stroke-width:1.82377"
   x="339.47418"
   y="306.98502"
   id="text3164-8-5-0-8-9"><tspan
     sodipodi:role="line"
     id="tspan3162-4-7-6-4-8"
     x="339.47418"
     y="306.98502"
     style="fill:#ffffff;stroke-width:1.82377">6</tspan></text><text
   xml:space="preserve"
   style="font-style:normal;font-weight:normal;font-size:9.72678px;line-height:1.25;font-family:sans-serif;fill:#ffffff;fill-opacity:1;stroke:none;stroke-width:1.82377"
   x="338.68259"
   y="348.28748"
   id="text3164-8-5-0-8-9-2"><tspan
     sodipodi:role="line"
     id="tspan3162-4-7-6-4-8-3"
     x="338.68259"
     y="348.28748"
     style="fill:#ffffff;stroke-width:1.82377">8</tspan><tspan
     sodipodi:role="line"
     x="338.68259"
     y="360.44595"
     style="fill:#ffffff;stroke-width:1.82377"
     id="tspan3292" /></text><text
   xml:space="preserve"
   style="font-style:normal;font-weight:normal;font-size:9.72678px;line-height:1.25;font-family:sans-serif;fill:#000000;fill-opacity:1;stroke:none;stroke-width:1.82377"
   x="319.03735"
   y="116.63487"
   id="text3164-8-5-0-5"><tspan
     sodipodi:role="line"
     id="tspan3162-4-7-6-7"
     x="319.03735"
     y="116.63487"
     style="fill:#000000;stroke-width:1.82377">1</tspan></text><text
   xml:space="preserve"
   style="font-style:normal;font-weight:normal;font-size:9.72678px;line-height:1.25;font-family:sans-serif;fill:#000000;fill-opacity:1;stroke:none;stroke-width:1.82377"
   x="294.89529"
   y="116.69661"
   id="text3164-8-5-0-5-4"><tspan
     sodipodi:role="line"
     id="tspan3162-4-7-6-7-5"
     x="294.89529"
     y="116.69661"
     style="fill:#000000;stroke-width:1.82377">2</tspan></text><text
   xml:space="preserve"
   style="font-style:normal;font-weight:normal;font-size:9.72678px;line-height:1.25;font-family:sans-serif;fill:#000000;fill-opacity:1;stroke:none;stroke-width:1.82377"
   x="271.47403"
   y="116.62299"
   id="text3164-8-5-0-5-4-3"><tspan
     sodipodi:role="line"
     id="tspan3162-4-7-6-7-5-9"
     x="271.47403"
     y="116.62299"
     style="fill:#000000;stroke-width:1.82377">3</tspan></text><text
   xml:space="preserve"
   style="font-style:normal;font-weight:normal;font-size:9.72678px;line-height:1.25;font-family:sans-serif;fill:#000000;fill-opacity:1;stroke:none;stroke-width:1.82377"
   x="245.94122"
   y="116.62299"
   id="text3164-8-5-0-5-4-3-7"><tspan
     sodipodi:role="line"
     x="245.94122"
     y="116.62299"
     style="fill:#000000;stroke-width:1.82377"
     id="tspan3456">4</tspan></text><text
   xml:space="preserve"
   style="font-style:normal;font-weight:normal;font-size:9.72678px;line-height:1.25;font-family:sans-serif;fill:#000000;fill-opacity:1;stroke:none;stroke-width:1.82377"
   x="222.76636"
   y="116.54938"
   id="text3164-8-5-0-5-4-3-7-3"><tspan
     sodipodi:role="line"
     id="tspan3162-4-7-6-7-5-9-4-1"
     x="222.76636"
     y="116.54938"
     style="fill:#000000;stroke-width:1.82377">5</tspan></text><text
   xml:space="preserve"
   style="font-style:normal;font-weight:normal;font-size:9.72678px;line-height:1.25;font-family:sans-serif;fill:#000000;fill-opacity:1;stroke:none;stroke-width:1.82377"
   x="306.43832"
   y="161.80942"
   id="text3164-8-5-0-5-4-3-7-3-8"><tspan
     sodipodi:role="line"
     id="tspan3162-4-7-6-7-5-9-4-1-7"
     x="306.43832"
     y="161.80942"
     style="fill:#000000;stroke-width:1.82377">6</tspan></text><text
   xml:space="preserve"
   style="font-style:normal;font-weight:normal;font-size:9.72678px;line-height:1.25;font-family:sans-serif;fill:#000000;fill-opacity:1;stroke:none;stroke-width:1.82377"
   x="282.78625"
   y="161.81654"
   id="text3164-8-5-0-5-4-3-7-3-8-8"><tspan
     sodipodi:role="line"
     id="tspan3162-4-7-6-7-5-9-4-1-7-2"
     x="282.78625"
     y="161.81654"
     style="fill:#000000;stroke-width:1.82377">7</tspan></text><text
   xml:space="preserve"
   style="font-style:normal;font-weight:normal;font-size:9.72678px;line-height:1.25;font-family:sans-serif;fill:#000000;fill-opacity:1;stroke:none;stroke-width:1.82377"
   x="258.73529"
   y="161.81654"
   id="text3164-8-5-0-5-4-3-7-3-8-8-4"><tspan
     sodipodi:role="line"
     id="tspan3162-4-7-6-7-5-9-4-1-7-2-6"
     x="258.73529"
     y="161.81654"
     style="fill:#000000;stroke-width:1.82377">8</tspan></text><text
   xml:space="preserve"
   style="font-style:normal;font-weight:normal;font-size:9.72678px;line-height:1.25;font-family:sans-serif;fill:#000000;fill-opacity:1;stroke:none;stroke-width:1.82377"
   x="234.74127"
   y="161.81892"
   id="text3164-8-5-0-5-4-3-7-3-8-8-4-7"><tspan
     sodipodi:role="line"
     id="tspan3162-4-7-6-7-5-9-4-1-7-2-6-1"
     x="234.74127"
     y="161.81892"
     style="fill:#000000;stroke-width:1.82377">9</tspan></text><text
   xml:space="preserve"
   style="font-style:normal;font-weight:normal;font-size:40px;line-height:1.25;font-family:sans-serif;fill:#000000;fill-opacity:1;stroke:none"
   x="287.05981"
   y="37"
   id="text3486"><tspan
     sodipodi:role="line"
     id="tspan3484"
     x="287.05981"
     y="37"
     style="font-style:normal;font-variant:normal;font-weight:bold;font-stretch:normal;font-size:26.6667px;font-family:sans-serif;-inkscape-font-specification:'sans-serif Bold';text-align:center;text-anchor:middle">Master System Controller </tspan><tspan
     sodipodi:role="line"
     x="287.05981"
     y="87"
     id="tspan999"
     style="font-style:normal;font-variant:normal;font-weight:bold;font-stretch:normal;font-size:26.6667px;font-family:sans-serif;-inkscape-font-specification:'sans-serif Bold';text-align:center;text-anchor:middle">Color Wire Scheme</tspan></text><path
   id="path899"
   style="fill:#000000;stroke-width:8.31496;stroke-linejoin:round"
   d="m 148.27044,344.65504 -3.4309,-17.63709 6.11723,-16.21972 19.54724,1.55095 1.55378,15.91186 -4.24011,17.94495 z"
   sodipodi:nodetypes="ccccccc" /><path
   id="path899-3"
   style="fill:#000000;stroke-width:8.31496;stroke-linejoin:round"
   d="m 119.62378,314.65293 -3.4309,-17.63709 6.11723,-16.21972 19.54724,1.55095 1.55378,15.91186 -4.24012,17.94495 z"
   sodipodi:nodetypes="ccccccc" /><path
   id="path899-9"
   style="fill:#000000;stroke-width:8.31496;stroke-linejoin:round"
   d="m 117.62378,370.65293 -3.4309,-17.63709 6.11723,-16.21972 19.54724,1.55095 1.55378,15.91186 -4.24011,17.94495 z"
   sodipodi:nodetypes="ccccccc" /><path
   id="path899-9-6"
   style="fill:#000000;stroke-width:8.31496;stroke-linejoin:round"
   d="m 89.12378,340.15293 -3.4309,-17.63709 6.11723,-16.21972 19.54724,1.55095 1.55378,15.91186 -4.24011,17.94495 z"
   sodipodi:nodetypes="ccccccc" /><path
   id="path899-9-6-8"
   style="fill:#000000;stroke-width:8.31496;stroke-linejoin:round"
   d="m 381.62378,337.15293 -3.4309,-17.63709 6.11723,-16.21972 19.54724,1.55095 1.55378,15.91186 -4.24011,17.94495 z"
   sodipodi:nodetypes="ccccccc" /><path
   id="path899-9-6-8-6"
   style="fill:#000000;stroke-width:8.31496;stroke-linejoin:round"
   d="m 421.62378,337.65293 -3.4309,-17.63709 6.11723,-16.21972 19.54724,1.55095 1.55378,15.91186 -4.24011,17.94495 z"
   sodipodi:nodetypes="ccccccc" /><path
   style="fill:#000000;stroke-width:8.31496;stroke-linejoin:round"
   id="path977"
   d="m 224.7557,364.70047 c 6.80052,0.36271 13.58291,0.94567 20.36519,1.5644 7.19434,0.6523 14.40684,1.12784 21.63196,1.15847 4.73454,-0.13619 9.48282,-0.0627 14.21377,-0.31929 3.00011,-0.16273 4.15196,-0.34458 7.08058,-0.69204 4.26877,-0.64982 8.498,-1.60609 12.34533,-3.60687 14.58014,-8.42711 4.0631,-2.13526 8.00561,-4.70207 0.22799,-0.14843 0.46307,-0.28578 0.69112,-0.43413 0.20216,-0.13152 0.80862,-0.52519 0.59933,-0.40534 -8.01699,4.59098 -7.41753,4.25788 -5.11015,3.00632 1.45887,-0.77389 3.06472,-1.14503 4.68486,-1.38638 1.58506,-0.20024 3.18492,-0.2201 4.78024,-0.22973 1.36889,0.0301 2.73532,-0.12634 4.07026,-0.42166 0,0 5.87307,-4.48092 5.87307,-4.48092 v 0 c -1.30445,0.3343 -2.63633,0.5996 -3.9909,0.57297 -1.6179,0.008 -3.23839,0.0115 -4.85067,0.16494 -1.65123,0.19719 -3.28296,0.49096 -4.81978,1.15702 -2.87714,1.52251 -1.20106,0.62616 -7.49907,4.30205 -0.43029,0.25114 -0.83228,0.54794 -1.25175,0.81675 -0.2626,0.16828 -1.06228,0.65355 -0.79046,0.50063 1.7577,-0.98884 3.49935,-2.00594 5.24903,-3.00891 -3.94101,2.28547 -8.01325,3.24814 -12.47856,4.04717 -2.88388,0.38633 -4.14745,0.60697 -7.0969,0.78438 -4.69437,0.28236 -9.4074,0.10143 -14.10537,0.26724 -7.28157,0.0227 -14.55815,-0.35907 -21.81462,-0.95316 -6.5849,-0.57253 -13.16948,-1.2208 -19.73258,-1.98317 0,0 -6.04954,4.28133 -6.04954,4.28133 z" /><path
   style="fill:#ff0000;stroke-width:8.31496;stroke-linejoin:round"
   id="path979"
   d="m 222.28228,343.67831 c 4.06637,-0.0823 7.83671,-1.52586 11.52307,-3.10602 0.87956,-0.44446 1.77857,-0.85237 2.63869,-1.33338 2.81387,-1.57361 5.62494,-3.15488 8.3803,-4.82882 0.7697,-0.46761 1.47151,-1.03969 2.18471,-1.58965 2.02724,-1.56323 3.87829,-3.2946 5.69549,-5.09161 3.04002,-3.22759 5.30022,-7.06434 7.9207,-10.61934 3.11525,-3.75835 5.8983,-7.76334 8.51122,-11.88134 1.40413,-2.32965 2.9032,-4.62562 3.96997,-7.1384 0.46908,-1.10493 0.7695,-2.08517 1.1463,-3.22058 0.8192,-2.50893 1.14073,-5.12018 1.28183,-7.74284 -0.0214,-2.49683 0.22528,-4.97353 0.6783,-7.42652 0.48619,-2.53709 0.94807,-5.08012 1.24079,-7.64759 0.10742,-1.41354 -0.57112,-2.63511 -1.21492,-3.84255 -0.1021,-0.20247 -0.2042,-0.40495 -0.3063,-0.60743 0,0 -6.40599,3.65185 -6.40599,3.65185 v 0 c 0.10447,0.20539 0.20894,0.41077 0.31342,0.61616 0.56266,1.08725 1.15991,2.18188 1.04241,3.44377 -0.24488,2.53546 -0.64885,5.05104 -1.15943,7.54657 -0.44862,2.49375 -0.72589,5.00584 -0.70934,7.5433 -0.14382,2.549 -0.46345,5.08676 -1.27351,7.52139 -0.41331,1.20868 -0.64087,1.95674 -1.15818,3.13201 -1.07664,2.44599 -2.51524,4.71337 -3.87967,7.00277 -2.6312,4.13097 -5.5132,8.08341 -8.61334,11.87631 -2.55925,3.54118 -4.81689,7.33104 -7.88266,10.47458 -1.82526,1.75468 -3.67809,3.46775 -5.71348,4.98202 -0.71375,0.53101 -3.02639,1.83005 -2.19121,1.52361 0.3669,-0.13462 7.68784,-4.36855 0.96505,-0.66584 -3.50275,1.55333 -7.0933,3.02372 -10.98784,3.07095 0,0 -5.99638,4.35662 -5.99638,4.35662 z" /><path
   style="fill:#ffff00;stroke-width:8.31496;stroke-linejoin:round"
   id="path985"
   d="m 265.17818,268.92738 c -1.18722,2.3221 -2.53634,4.55444 -3.77734,6.84792 -1.02336,2.09619 -2.25248,4.07865 -3.38304,6.11581 -0.93359,1.55433 -1.2808,3.31764 -1.79791,5.02639 -0.56875,1.49403 -1.45718,2.82993 -2.22267,4.22656 -0.82255,1.57469 -1.71981,3.10346 -2.65596,4.6122 -1.62115,2.43819 -3.04879,4.9783 -4.80449,7.32628 -2.52245,3.26515 -5.51411,6.11136 -8.67686,8.74396 -3.13851,2.43804 -5.9681,5.17955 -8.41606,8.30551 -1.33573,1.93203 -2.66343,3.87327 -4.26869,5.59278 -1.95749,1.67568 -5.91699,3.79631 4.62862,-2.52141 0.17069,-0.10226 -0.35471,0.18227 -0.54072,0.25295 -0.35411,0.13455 -0.85923,0.23441 -1.22107,0.31657 -1.97652,0.49946 -3.84639,1.34175 -5.72725,2.11344 0,0 -5.71508,4.49725 -5.71508,4.49725 v 0 c 1.84909,-0.73527 3.66617,-1.55433 5.56951,-2.1457 0.54339,-0.11654 1.39503,-0.12285 1.88471,-0.39436 3.04174,-1.68656 5.68683,-2.65125 7.88778,-4.96511 1.50864,-1.75505 2.75699,-3.70561 4.11492,-5.57588 2.45154,-3.06666 5.31964,-5.71702 8.40314,-8.1451 3.15428,-2.7042 6.13683,-5.61238 8.66777,-8.92039 1.76256,-2.40973 3.22089,-5.00867 4.93815,-7.45021 0.93239,-1.51171 1.75776,-3.083 2.6235,-4.63332 0.80759,-1.41678 1.71179,-2.80535 2.16543,-4.38786 0.45196,-1.69121 0.95759,-3.34992 1.85692,-4.86913 1.11533,-2.01883 2.2613,-4.02068 3.29403,-6.08402 1.25946,-2.33217 2.60753,-4.61285 3.94183,-6.90257 0,0 -6.76917,3.01744 -6.76917,3.01744 z" /><path
   style="fill:#a05a2c;stroke-width:8.31496;stroke-linejoin:round"
   id="path987"
   d="m 230.52964,299.28079 c 1.73753,-1.7042 3.6877,-3.11339 5.70186,-4.46797 3.11285,-2.35773 6.49346,-4.29857 9.81282,-6.33884 2.95088,-1.79978 5.84533,-3.69766 8.56021,-5.83902 2.24005,-1.76775 4.24232,-3.79457 6.26293,-5.79917 1.53625,-1.5364 2.86233,-3.24306 4.13652,-4.99522 0.65795,-0.77519 0.90982,-1.76968 1.38265,-2.64364 0.17338,-0.32047 0.38868,-0.61664 0.57084,-0.93221 0.20411,-0.45912 0.44362,-0.89462 0.64453,-1.35523 0,0 -6.74219,3.07291 -6.74219,3.07291 v 0 c -0.21633,0.43479 -0.4292,0.87157 -0.66383,1.29693 -0.65084,1.15469 -1.09527,2.42198 -1.92397,3.47375 -1.25761,1.72647 -2.60746,3.37922 -4.13895,4.87406 -1.96746,2.00242 -3.99474,3.94782 -6.21112,5.67771 -2.73269,2.08144 -5.60746,3.96473 -8.54353,5.74682 -3.34735,2.03115 -6.67896,4.07879 -9.84532,6.38848 -2.06995,1.41781 -4.05442,2.93312 -5.86064,4.68098 0,0 6.85719,-2.84034 6.85719,-2.84034 z" /><path
   style="fill:#ff6600;stroke-width:8.31496;stroke-linejoin:round"
   id="path989"
   d="m 221.21802,285.68155 c 1.47834,0.072 2.94826,0.26511 4.42529,0.37313 1.3536,0.17168 2.6957,-0.009 4.04011,-0.15571 1.77369,-0.24142 3.53485,-0.58036 5.25931,-1.06069 2.02523,-0.62619 3.89903,-1.63123 5.76519,-2.61838 3.88878,-2.01846 7.57467,-4.37705 11.23862,-6.76389 1.10715,-0.87026 0.46949,-0.40219 1.62285,-1.17855 0.26344,-0.17733 1.06466,-0.69144 0.78846,-0.53474 -1.83444,1.04079 -3.64632,2.12085 -5.4654,3.18824 -0.24925,0.14626 0.50579,-0.2798 0.7558,-0.42475 2.35236,-1.36388 4.70082,-2.73447 7.05123,-4.1017 0.25152,-0.14678 1.00634,-0.58667 0.75457,-0.44032 -1.8614,1.08195 -7.44839,4.32302 -5.58346,3.24714 3.2693,-1.88606 6.48985,-3.57598 9.51559,-5.76039 1.327,-0.97659 2.53025,-2.10351 3.71135,-3.24816 0.86556,-0.8848 1.59974,-1.86893 2.71176,-2.45611 0,0 -6.8988,2.68882 -6.8988,2.68882 v 0 c -0.97239,0.75746 -1.72716,1.72861 -2.6221,2.57075 -1.17631,1.11445 -2.38389,2.20016 -3.71385,3.13117 -0.77741,0.5372 -0.81891,0.57701 -1.62683,1.08941 -0.28191,0.17879 -1.14227,0.69113 -0.85146,0.52722 12.02346,-6.77677 1.79938,-1.17525 -2.23563,1.29568 1.83321,-1.05079 3.66988,-2.09558 5.49964,-3.15237 0.25311,-0.14619 -0.51648,0.27414 -0.76953,0.42044 -3.2432,1.87505 -6.49326,3.55146 -9.46011,5.79738 -0.81397,0.53209 -1.63386,1.0543 -2.45102,1.58139 -0.28288,0.18247 -1.14028,0.71492 -0.84598,0.55152 0.44313,-0.24603 8.06219,-4.60115 4.56897,-2.60456 -1.85029,0.97747 -3.67605,2.02717 -5.6625,2.70908 -1.66573,0.57568 -3.4044,0.85351 -5.13708,1.15023 -1.32348,0.13389 -2.63997,0.3964 -3.974,0.26126 -1.47437,-0.0812 -2.94839,-0.19962 -4.4057,-0.44564 0,0 -6.00529,4.3631 -6.00529,4.3631 z" /><path
   style="fill:#0000ff;stroke-width:8.31496;stroke-linejoin:round"
   id="path991"
   d="m 323.6932,300.82816 c -4.2799,0.19629 -8.57395,0.14428 -12.81232,-0.546 -0.96584,-0.1573 -1.91964,-0.38123 -2.87945,-0.57184 -3.1244,-0.85657 -6.22944,-1.91534 -9.07247,-3.49391 -1.26641,-0.70317 -2.11533,-1.33554 -3.29498,-2.15568 -2.50728,-1.83776 -4.89294,-3.83474 -6.89497,-6.21946 -1.26277,-1.57732 -2.14183,-3.39467 -2.8561,-5.27224 -0.82958,-2.05197 -1.07511,-4.24764 -1.23613,-6.43492 -0.1122,-2.09278 -0.10426,-4.18964 -0.0985,-6.2847 0.005,-0.83018 0.0163,-1.6603 0.0265,-2.49043 0,0 -6.56149,3.34053 -6.56149,3.34053 v 0 c 0.005,0.82429 0.01,1.64858 0.0134,2.47288 0.006,2.10711 0.0108,4.2156 0.15342,6.319 0.1784,2.25799 0.47343,4.51574 1.30841,6.6392 0.76703,1.94755 1.67144,3.83733 3.01349,5.46466 2.08131,2.40898 4.55755,4.41515 7.10787,6.30864 0.99495,0.68312 2.33765,1.6368 3.38423,2.22048 2.9086,1.62214 6.11854,2.63553 9.29918,3.56082 0.97189,0.20199 1.93711,0.43923 2.91567,0.60597 4.13678,0.70489 8.32154,0.80742 12.50574,0.88068 0,0 5.97857,-4.34368 5.97857,-4.34368 z" /><path
   style="fill:#000000;stroke-width:8.31496;stroke-linejoin:round"
   id="path993"
   d="m 322.94426,334.7841 c -2.79196,-0.54605 -5.59416,-1.02079 -8.37049,-1.6573 -3.7659,-0.74997 -7.25304,-2.43012 -10.65733,-4.1504 -4.49937,-2.62299 -8.40196,-6.14941 -12.2329,-9.64676 -2.10937,-2.04669 -4.34842,-3.9943 -6.19258,-6.29624 -1.00764,-1.25778 -1.07339,-1.46961 -1.89736,-2.83876 -0.2325,-0.60192 -0.50455,-1.19001 -0.6975,-1.80575 -0.2582,-0.82395 -0.85595,-3.55491 -1.02965,-4.35622 -0.45832,-2.11434 -0.90346,-4.23215 -1.34355,-6.35036 -0.4383,-1.69906 -0.50215,-3.47039 -0.8855,-5.17821 -0.12447,-0.55454 -0.29868,-1.09673 -0.44599,-1.64565 -0.36396,-1.45747 -0.38433,-2.99133 0.0281,-4.4363 0.45523,-1.46639 0.84157,-2.95773 1.09066,-4.47348 0.19803,-1.38214 0.2295,-2.77057 0.44754,-4.14912 0.22164,-1.30706 0.26581,-2.63433 0.30939,-3.95663 0.10868,-0.87584 0.24076,-1.74828 0.34909,-2.62418 0,0 -6.62004,3.27124 -6.62004,3.27124 v 0 c -0.11011,0.89279 -0.24599,1.78298 -0.31461,2.68032 -0.0456,1.30037 -0.1324,2.59912 -0.34806,3.88403 -0.18483,1.36917 -0.20353,2.75266 -0.43276,4.11666 -0.28884,1.50274 -0.71087,2.96914 -1.11923,4.44285 -0.29996,1.58319 -0.27262,3.18697 0.15514,4.75012 0.59708,2.2132 1.01669,4.45623 1.49229,6.6996 0.49222,2.1013 0.95673,4.2049 1.40649,6.31565 0.1882,0.88318 0.75995,3.58887 1.02766,4.47425 0.19995,0.66127 0.47833,1.29624 0.7175,1.94437 0.87126,1.43951 0.91255,1.62107 1.98367,2.93314 1.89367,2.31967 4.2418,4.20431 6.39535,6.26729 3.87065,3.51148 7.73089,7.13443 12.18313,9.90362 3.43711,1.75037 6.96126,3.51396 10.76572,4.28392 2.69552,0.64174 5.40498,1.22413 8.11394,1.79086 0,0 6.12183,-4.19256 6.12183,-4.19256 z" /><path
   style="fill:#ffffff;stroke:#000000;stroke-width:1.015;stroke-linejoin:round;stroke-miterlimit:4;stroke-dasharray:none;stroke-opacity:1"
   id="path997"
   d="m 328.6932,278.32816 c -4.69257,0.13328 -9.38804,0.12408 -14.08208,0.11217 -3.44735,0.0157 -6.88381,0.0137 -10.30806,-0.40368 -2.07852,-0.29421 -4.06135,-1.03049 -5.88731,-2.05083 -1.42047,-0.81598 -2.73164,-1.80129 -4.10866,-2.68655 -1.34831,-0.78063 -2.54756,-1.74721 -3.41184,-3.0488 -0.90343,-1.2109 -1.38003,-2.6447 -1.98591,-4.00825 -0.47312,-0.81777 -0.9141,-1.65291 -1.37564,-2.47721 0,0 -6.34801,3.654 -6.34801,3.654 v 0 c 0.4519,0.80656 0.89462,1.61768 1.29863,2.44969 0.64497,1.38906 1.14567,2.85321 2.06142,4.1029 0.9251,1.3794 2.13243,2.4882 3.58658,3.30405 1.40423,0.86494 2.69475,1.90029 4.13235,2.71093 1.89072,1.09022 3.96154,1.88717 6.12065,2.23918 0.64526,0.0811 2.14514,0.27774 2.78016,0.32393 2.58686,0.18815 5.1865,-0.0651 7.77584,0.01 4.59107,-0.0116 9.18382,-0.0251 13.77331,0.11216 0,0 5.97857,-4.34368 5.97857,-4.34368 z" /></svg>
